<?xml version="1.0" encoding="UTF-8" standalone="no"?>
<!-- Uploaded to: SVG Repo, www.svgrepo.com, Generator: SVG Repo Mixer Tools -->

<svg
   width="20"
   height="20"
   viewBox="0 0 0.6 0.6"
   fill="none"
   version="1.1"
   id="svg8"
   xmlns="http://www.w3.org/2000/svg"
   xmlns:svg="http://www.w3.org/2000/svg">
  <defs
     id="defs12" />
  <g
     id="g346"
     transform="matrix(0.97065255,0,0,0.97065255,0.00880422,0.00880423)">
    <circle
       cx="0.41162783"
       cy="0.18837227"
       r="0.05581392"
       stroke="#000000"
       stroke-width="0.06"
       id="circle2" />
    <path
       d="m 0.02093039,0.31395638 0.04888155,-0.0427702 c 0.02543078,-0.0222502 0.06375875,-0.0209749 0.08765297,0.002919 l 0.11971277,0.11971249 c 0.0191777,0.0191805 0.0493674,0.0217953 0.071559,0.006198 l 0.008322,-0.005846 c 0.0319311,-0.0224428 0.0751339,-0.0198419 0.10414598,0.006268 l 0.0899581,0.0809609"
       stroke="#000000"
       stroke-width="0.06"
       stroke-linecap="round"
       id="path4" />
    <path
       d="m 0.57906959,0.30000011 c 0,0.13155341 0,0.1973329 -0.0408697,0.23819986 -0.040867,0.0408697 -0.10664645,0.0408697 -0.23819986,0.0408697 -0.1315548,0 -0.19733207,0 -0.23820069,-0.0408697 -0.04086891,-0.040867 -0.04086891,-0.10664645 -0.04086891,-0.23819986 0,-0.1315548 0,-0.19733207 0.04086891,-0.23820069 0.04086862,-0.04086891 0.10664589,-0.04086891 0.23820069,-0.04086891 0.13155341,0 0.1973329,0 0.23819986,0.04086891 0.0271758,0.02717412 0.0362818,0.06536033 0.0393321,0.12657285"
       stroke="#000000"
       stroke-width="0.06"
       stroke-linecap="round"
       id="path6" />
  </g>
</svg>
