<?xml version="1.0" encoding="UTF-8"?>
<svg width="40" height="40" fill="none" version="1.1" viewBox="0 0 40 40" xmlns="http://www.w3.org/2000/svg">
 <g transform="matrix(.013222 0 0 .013222 19.807 19.665)">
  <circle cx="14.589" cy="25.316" r="1484.3" fill="#ffffff" stroke-width="3.7795"/>
  <g transform="matrix(81.365 0 0 81.365 -1450 -1439.3)" clip-path="url(#clipPath1302)">
   <path d="m27 34.028v-2.0283s0-4 4-4 0.61108 1.6586 0.61108 1.6586l-0.93776 1.1866zm-9 1.9717v-9s0-4 4-4 4 4 4 4v7.4596l-4.1589 1.2218zm-9-1.8485v-10.151s0-4 4-4 4 4 4 4v12zm-5.7343-5.4146-1.3556-1.7368s-1.9101-4 2.0899-4 4 4 4 4v6.4121z" fill="#f7dece"/>
   <path d="m31.077 30.964c0.39251-0.29073 0.88539-1.2187 1.5177-2.0061 0.4431-0.55181 1.1829-0.85359 1.0271-1.5939-0.37602-1.7868-1.126-3.3639-2.6219-3.3639-3 0-3 6.343-3 8 0 0.43059 0.06953 0.81483 0.19362 1.1527 0.09824 0.26751 0.14095 0.04089 0.22137-9e-3 0.16003-0.09927 0.33209-0.32264 0.42698-0.3277 0.35672-0.01902 0.52262-0.5837 2.2352-1.8522z" fill="#dd2e44"/>
   <path d="m25 27c0-1.657 0-8-3-8s-3 6.343-3 8a3 3 0 0 0 6 0z" fill="#dd2e44"/>
   <path d="m7 27c0-1.657 0-8-3-8-2.1766 0-2.774 3.3391-2.938 5.8048-0.062018 0.9327 0.93803 1.3862 0.93803 1.841 0 0.81193 0.16388 0.75069 0.55794 1.233 0.63337 0.77521 0.72939 2.1872 1.7048 2.1109 1.4075-0.11009 2.7372-1.1067 2.7372-2.9897z" fill="#dd2e44"/>
   <path d="m16 24c0-1.657 0-8-3-8s-3 6.343-3 8a3 3 0 1 0 6 0z" fill="#dd2e44"/>
   <path d="m13 16v4h2s2 0 6-4l-2-2s-2 2-6 2z" fill="#dd2e44"/>
   <path d="m19 14 8-8 2 2-8 8z" fill="#8899a6"/>
   <path d="m27 6s-2-2 0-4l3.1445 2.3869 2.8565 3.6122-9.44e-4 9.442e-4c-2 2-4 0-4 0z" fill="#8899a6"/>
  </g>
  <circle cx="14.589" cy="25.316" r="1484.3" fill="none" stroke="#000000" stroke-width="56.693"/>
 </g>
</svg>
