<?xml version="1.0" encoding="UTF-8" standalone="no"?>
<!-- Uploaded to: SVG Repo, www.svgrepo.com, Generator: SVG Repo Mixer Tools -->

<svg
   width="20"
   height="20"
   viewBox="0 0 0.6 0.6"
   fill="none"
   version="1.1"
   id="svg484"
   xmlns="http://www.w3.org/2000/svg"
   xmlns:svg="http://www.w3.org/2000/svg">
  <defs
     id="defs488" />
  <path
     d="m 0.4501117,0.32768026 h 0.11991067 v 0.17986597 c 0,0.0331132 -0.026842,0.0599553 -0.0599552,0.0599553 M 0.4501118,0.32768021 v 0.17986596 c 0,0.0331132 0.0268421,0.0599553 0.0599553,0.0599553 M 0.45011169,0.32768026 V 0.11055414 c 0,-0.02714136 0,-0.04071224 -0.005701,-0.04858214 -0.004972,-0.006865 -0.0126208,-0.01130341 -0.0210503,-0.01221562 -0.009662,-0.0010456 -0.0214431,0.005687 -0.0450085,0.01915288 l -0.009365,0.0053506 c -0.008673,0.0049558 -0.0130106,0.0074344 -0.0176149,0.0084052 -0.004076,8.5934e-4 -0.008286,8.5934e-4 -0.0123628,0 -0.004603,-9.6942e-4 -0.008942,-0.0034508 -0.0176149,-0.0084052 l -0.05733,-0.03275884 c -0.008673,-0.0049563 -0.0130106,-0.0074344 -0.0176149,-0.0084048 -0.004076,-8.5934e-4 -0.008287,-8.5934e-4 -0.0123616,0 -0.004606,9.6942e-4 -0.008942,0.0034501 -0.0176161,0.0084051 l -0.0573282,0.03275839 c -0.008674,0.0049572 -0.0130106,0.0074344 -0.0176166,0.0084052 -0.004076,8.5934e-4 -0.008286,8.5934e-4 -0.0123616,0 -0.004606,-9.6941e-4 -0.008942,-0.0034508 -0.0176166,-0.0084052 L 0.1021846,0.06890912 C 0.07861888,0.05544314 0.06683604,0.04871022 0.05717445,0.04975626 0.04874728,0.05067064 0.04109866,0.05510689 0.03612508,0.06197186 0.03042331,0.06984148 0.03042331,0.08341239 0.03042331,0.110554 v 0.31305464 c 0,0.0503654 0,0.0755497 0.0098021,0.0947894 0.0086229,0.0169194 0.02238038,0.0306791 0.03930227,0.0393009 0.01923753,0.009803 0.04442126,0.009803 0.09478851,0.009803 H 0.51006705 M 0.30022339,0.25273609 c -0.0149891,-0.003716 -0.0394178,-0.003857 -0.0599552,-0.003716 -0.006868,4.496e-5 -0.002718,-2.4582e-4 -0.0119914,0 -0.0242043,7.5352e-4 -0.0479148,0.010816 -0.0479644,0.0393159 -5.245e-5,0.0303611 0.0299776,0.0393457 0.0599553,0.0393457 0.0299776,0 0.0599552,0.00693 0.0599552,0.0393457 0,0.0243597 -0.0242069,0.0350347 -0.0543766,0.0385693 -0.0239822,0 -0.0355566,7.7469e-4 -0.0655341,-0.002972 m 0.0599553,0.0149891 v 0.0299775 m 0,-0.23982191 v 0.0299776"
     stroke="#000000"
     stroke-width="0.0599552"
     stroke-linecap="round"
     stroke-linejoin="round"
     id="path482" />
</svg>
