<?xml version="1.0" encoding="UTF-8" standalone="no"?>
<!-- Uploaded to: SVG Repo, www.svgrepo.com, Generator: SVG Repo Mixer Tools -->

<svg
   fill="#000000"
   height="20"
   width="20"
   version="1.1"
   viewBox="0 0 11.594925 11.594925"
   enable-background="new 0 0 463.797 463.797"
   id="svg325"
   xmlns="http://www.w3.org/2000/svg"
   xmlns:svg="http://www.w3.org/2000/svg">
  <defs
     id="defs329" />
  <g
     id="g323"
     transform="matrix(0.02500016,0,0,0.02500016,-3.5552443e-5,-4.960384e-5)">
    <path
       d="m 247.173,258.245 c -2.107,-16.434 -13.259,-29.811 -28.04,-35.382 v -72.094 c 0,-9.665 -7.835,-17.5 -17.5,-17.5 h -106 c -9.665,0 -17.5,7.835 -17.5,17.5 v 72.095 c -14.781,5.571 -25.932,18.948 -28.039,35.381 L 28.827,424.161 c -1.284,10.021 1.808,20.118 8.481,27.703 6.675,7.584 16.297,11.934 26.399,11.934 h 169.851 c 10.103,0 19.725,-4.35 26.399,-11.934 6.674,-7.584 9.766,-17.682 8.481,-27.703 z m -134.04,-89.976 h 71 v 51.797 h -71 z m 120.49,260.523 c 0,0 -0.019,0.004 -0.064,0.004 L 63.646,428.792 c -0.034,-0.015 -0.096,-0.085 -0.102,-0.183 L 84.811,262.694 c 0.557,-4.35 4.284,-7.629 8.669,-7.629 h 110.308 c 4.385,0 8.112,3.28 8.669,7.629 l 21.271,165.977 c -0.011,0.037 -0.073,0.107 -0.105,0.121 z"
       id="path319" />
    <path
       d="m 417.755,247.516 h -35.5 V 118.697 c 6.104,-5.048 10,-12.676 10,-21.197 v -70 c 0,-15.164 -12.337,-27.5 -27.5,-27.5 -15.163,0 -27.5,12.336 -27.5,27.5 v 70 c 0,8.521 3.896,16.149 10,21.197 v 128.818 h -35.5 c -9.665,0 -17.5,7.835 -17.5,17.5 v 181.281 c 0,9.665 7.835,17.5 17.5,17.5 h 106 c 9.665,0 17.5,-7.835 17.5,-17.5 v -181.28 c 0,-9.665 -7.835,-17.5 -17.5,-17.5 z m -17.5,181.281 h -71 V 282.516 h 71 z"
       id="path321" />
  </g>
</svg>
