<?xml version="1.0" encoding="UTF-8" standalone="no"?>
<!-- Uploaded to: SVG Repo, www.svgrepo.com, Generator: SVG Repo Mixer Tools -->

<svg
   width="20"
   height="20"
   viewBox="0 0 0.6 0.6"
   fill="none"
   version="1.1"
   id="svg4"
   xmlns="http://www.w3.org/2000/svg"
   xmlns:svg="http://www.w3.org/2000/svg">
  <defs
     id="defs8" />
  <path
     d="m 0.0599999,0.57000014 c 0,-0.10579506 0.07823134,-0.19331711 0.18000011,-0.20787311 m 0.29617819,0.0339871 c -0.002047,1.2301e-4 -0.004108,1.8599e-4 -0.006177,1.8599e-4 -0.030735,0 -0.05877,-0.0137279 -0.080001,-0.0363 -0.0212311,0.022572 -0.0492661,0.0362971 -0.0800011,0.0362971 -0.002069,0 -0.00413,-6.3e-5 -0.006177,-1.86e-4 -0.002496,0.011448 -0.003822,0.023454 -0.003822,0.035826 0,0.066426 0.038244,0.12223806 0.09,0.13806307 0.051756,-0.015825 0.09,-0.071637 0.09,-0.13806307 0,-0.0123719 -0.001325,-0.024378 -0.003822,-0.0358231 z M 0.39000009,0.14999991 c 0,0.0662742 -0.053727,0.12000006 -0.12000007,0.12000006 -0.0662742,0 -0.12000006,-0.0537258 -0.12000006,-0.12000006 0,-0.06627422 0.0537258,-0.12000007 0.12000006,-0.12000007 0.066273,0 0.12000007,0.05372582 0.12000007,0.12000007 z"
     stroke="#000000"
     stroke-width="0.06"
     stroke-linecap="round"
     stroke-linejoin="round"
     id="path234" />
</svg>
