<?xml version="1.0" encoding="UTF-8" standalone="no"?>
<!-- Uploaded to: SVG Repo, www.svgrepo.com, Generator: SVG Repo Mixer Tools -->

<svg
   width="20"
   height="20"
   viewBox="0 0 0.6 0.6"
   fill="none"
   version="1.1"
   id="svg4"
   xmlns="http://www.w3.org/2000/svg"
   xmlns:svg="http://www.w3.org/2000/svg">
  <defs
     id="defs8" />
  <path
     d="M 0.32999998,0.5399999 V 0.4799998 c 0,-0.0828419 -0.0671579,-0.14999995 -0.14999997,-0.14999995 -0.08284261,0 -0.14999992,0.0671581 -0.14999992,0.14999995 v 0.0600001 z m 0,0 h 0.23999993 v -0.03 c 0,-0.0883651 -0.0671579,-0.14999994 -0.14999997,-0.14999994 -0.042399,0 -0.080691,0.0187651 -0.10797289,0.048933 M 0.27,0.15000002 c 0,0.0497055 -0.0402944,0.0899999 -0.0899999,0.0899999 -0.0497055,0 -0.08999991,-0.0402945 -0.08999991,-0.0899999 0,-0.0497055 0.04029441,-0.08999993 0.08999991,-0.08999993 0.0497055,0 0.0899999,0.04029443 0.0899999,0.08999993 z m 0.20999993,0.0599999 c 0,0.0331379 -0.0268621,0.0600001 -0.0600001,0.0600001 -0.0331379,0 -0.0600001,-0.0268621 -0.0600001,-0.0600001 0,-0.033137 0.0268621,-0.0599999 0.0600001,-0.0599999 0.0331379,0 0.0600001,0.0268628 0.0600001,0.0599999 z"
     stroke="#000000"
     stroke-width="0.0600002"
     stroke-linecap="round"
     stroke-linejoin="round"
     id="path2" />
</svg>
